<svg width="120" height="120" viewBox="0 0 120 120" fill="none" xmlns="http://www.w3.org/2000/svg">
<path d="M102.358 40.3684C102.358 42.4343 102.196 44.4681 101.878 46.4519C101.796 46.9974 101.693 47.5386 101.586 48.0799C100.753 52.1956 99.2614 56.0843 97.2176 59.6534C95.0228 63.4964 92.1908 66.9632 88.85 69.9197C88.8019 69.9602 88.7527 70.0071 88.7036 70.0487C87.8449 70.7998 86.9527 71.521 86.0336 72.2061C84.0122 73.7158 81.8387 75.0497 79.5466 76.1886C77.9791 76.9706 76.3467 77.6567 74.6719 78.2481C71.6117 79.3252 68.3906 80.0774 65.0442 80.4535H65.0387C63.385 80.6442 61.6979 80.7422 59.9895 80.7422C54.8274 80.7422 49.8811 79.8664 45.3082 78.2481C43.9464 77.7697 42.617 77.2242 41.3302 76.6212C40.8818 76.4145 40.4323 76.1982 39.9952 75.9723C39.6005 75.771 39.2058 75.56 38.8167 75.3437C32.1565 71.6809 26.6377 66.3293 22.9078 59.9059C22.8598 59.8239 22.8106 59.7408 22.767 59.6534H22.7625C20.5074 55.7178 18.9242 51.3858 18.1561 46.7918C18.0051 45.8904 17.8866 44.9838 17.7994 44.0622C17.6809 42.8455 17.6216 41.615 17.6216 40.3684C17.6216 18.0747 36.5896 0 59.9895 0C83.3905 0 102.358 18.0747 102.358 40.3684Z" fill="#AB68C2"/>
<path d="M120 99.2127C120 100.516 119.443 101.788 118.465 102.689C118.318 102.823 118.162 102.952 117.994 103.065C116.983 103.772 115.73 104.065 114.487 104.188C112.994 104.338 111.47 104.359 109.968 104.317H109.908C109.832 104.317 109.762 104.306 109.686 104.306C107.508 104.23 105.33 103.972 103.183 103.565C102.735 103.483 102.285 103.39 101.837 103.281H101.821C99.5182 102.747 97.2698 102.004 95.1186 101.072C94.8045 100.939 94.4914 100.794 94.1828 100.645C94.1672 100.645 94.1448 100.639 94.1292 100.624C92.0216 99.6399 90.0102 98.4551 88.1397 97.1053C88.086 97.0701 88.0313 97.0339 87.9776 96.9923C87.7294 96.8123 87.4912 96.6376 87.2531 96.4415C87.243 96.4511 87.2374 96.4415 87.2374 96.4362C85.9237 95.4315 84.6804 94.3448 83.5232 93.1803C82.9888 92.6508 82.4801 92.1042 81.9881 91.5428C81.7992 91.3265 81.6203 91.1209 81.4369 90.8993C79.8806 89.055 78.5177 87.0616 77.3829 84.95C77.2532 84.7071 76.4314 83.7035 75.642 82.7244C75.1288 82.0862 74.6212 81.4618 74.3395 81.0762C74.221 80.9164 74.1394 80.8034 74.1069 80.7363L78.6474 76.6153L79.5284 75.8173L87.3235 68.7451L97.0697 59.9001L97.4811 59.5293C97.4699 59.54 97.4699 59.5495 97.4643 59.5602C97.0484 60.5137 96.6962 61.4971 96.3944 62.5071C96.3944 62.5167 96.3888 62.522 96.3776 62.5433C95.7515 64.7317 95.4105 67.0554 95.4105 69.4397C95.4105 71.1242 95.5838 72.8086 95.9237 74.4621C96.1182 75.4156 96.372 76.3521 96.6806 77.2801C97.5024 79.7369 98.7132 82.0649 100.254 84.1818C101.783 86.2679 103.632 88.143 105.735 89.7241C106.097 89.9979 106.47 90.2653 106.848 90.5178C107.859 91.2029 108.924 91.8208 110.032 92.3621C112.021 93.3348 114.108 93.892 116.211 94.5771C118.4 95.2824 120 96.9103 120 99.2127Z" fill="#AB68C2"/>
<path d="M46.9842 71.648C46.9787 71.6938 46.9731 71.7407 46.9686 71.7865C46.963 71.8387 46.9574 71.8952 46.9462 71.9463C46.8165 73.0384 46.6063 74.1208 46.3246 75.182C46.1032 76.0364 45.8326 76.876 45.514 77.7006C45.4436 77.8806 45.3787 78.066 45.3083 78.2461C44.4764 80.5026 43.7408 82.8359 42.6171 84.9528C42.1844 85.7562 41.7249 86.5392 41.2274 87.3021C40.4224 88.5529 39.5301 89.7589 38.563 90.9021C38.3785 91.1237 38.2008 91.3293 38.0107 91.5467C36.4432 93.3387 34.6755 94.9762 32.7625 96.4401C32.7625 96.4444 32.7569 96.455 32.7457 96.4444C32.5087 96.6404 32.2706 96.8151 32.0224 96.9963C31.9676 97.0367 31.9195 97.073 31.8647 97.1039C31.8647 97.1092 31.8591 97.1092 31.8591 97.1092C29.9897 98.4591 27.9783 99.6438 25.8708 100.627C25.854 100.643 25.8328 100.647 25.816 100.647C25.5141 100.798 25.1944 100.941 24.8813 101.076C22.7302 102.008 20.4806 102.749 18.1618 103.285C17.7134 103.393 17.2651 103.486 16.8167 103.569C14.6701 103.976 12.4977 104.233 10.313 104.31C10.2381 104.31 10.1676 104.321 10.0972 104.321H10.0324C8.52968 104.361 7.00465 104.341 5.51315 104.192C4.26987 104.068 3.01541 103.774 2.00468 103.069C1.84256 102.955 1.68603 102.827 1.53509 102.693C0.556791 101.792 0 100.52 0 99.2155C0 96.9132 1.59994 95.2863 3.79469 94.5799C5.89217 93.8948 7.97847 93.3387 9.9675 92.3649C10.5567 92.0773 11.1348 91.7672 11.7027 91.4327C12.5938 90.9181 13.448 90.346 14.2653 89.728C15.3454 88.914 16.3617 88.018 17.3031 87.0592C17.567 86.7917 17.8219 86.5137 18.0757 86.2303C18.6705 85.5761 19.2273 84.8911 19.7461 84.1858C21.2867 82.0688 22.4976 79.7398 23.3194 77.283C23.5083 76.7162 23.676 76.1451 23.8214 75.5676C24.0159 74.8059 24.1725 74.0377 24.2977 73.2653C24.4922 72.0028 24.5895 70.7211 24.5895 69.4437C24.5895 67.0582 24.2485 64.7356 23.6213 62.5462C23.6112 62.5259 23.6056 62.5206 23.6056 62.51C23.3026 61.501 22.9515 60.5166 22.5356 59.5641C22.53 59.5534 22.53 59.5428 22.5189 59.5332L22.7626 59.6515H22.7682L26.697 61.598L30.3352 63.4017L46.9842 71.648Z" fill="#AB68C2"/>
<path d="M57.3293 81.9106C57.2701 82.4252 57.2108 82.9462 57.1348 83.4608C56.8754 85.2485 56.4639 87.015 55.9183 88.7409C55.745 89.2811 55.5616 89.817 55.3671 90.3476C55.2642 90.6161 55.167 90.8686 55.0641 91.1253C54.2043 93.3147 53.1075 95.4168 51.8049 97.3942C51.8049 97.4049 51.7993 97.4144 51.7938 97.4102C51.6316 97.668 51.4695 97.9099 51.2962 98.1517C51.1777 98.3264 51.0536 98.4969 50.934 98.6663C49.6907 100.403 48.2909 102.031 46.7446 103.519C46.7345 103.534 46.7177 103.55 46.7021 103.555C46.4639 103.792 46.2157 104.024 45.9664 104.25C44.2591 105.806 42.3886 107.212 40.3984 108.444C40.3939 108.444 40.3883 108.448 40.3883 108.448C39.9993 108.691 39.6102 108.918 39.2155 109.138C37.3282 110.195 35.3615 111.122 33.3289 111.878C33.2584 111.905 33.1981 111.931 33.1287 111.956L33.0695 111.976C31.6685 112.487 30.2206 112.945 28.756 113.275C27.5451 113.548 26.2526 113.666 25.0574 113.321C24.8629 113.265 24.6683 113.192 24.4849 113.11C23.2472 112.564 22.2846 111.539 21.8307 110.308C21.0368 108.139 21.9816 106.094 23.8096 104.739C25.5549 103.436 27.3338 102.257 28.8745 100.712C29.9825 99.5996 30.9876 98.3882 31.8586 97.1012C31.8586 97.1012 31.8631 97.1012 31.8631 97.0959C31.9179 97.0234 31.9715 96.9467 32.0207 96.869C33.4586 94.7158 34.5498 92.3665 35.2743 89.915C35.9988 87.4326 36.3342 84.8564 36.2638 82.276C36.2258 81.0199 36.0905 79.768 35.8579 78.5258C35.6041 77.1514 35.2318 75.7962 34.7499 74.4772C33.9282 72.2217 32.7441 69.147 33.3881 67.2559C33.3937 67.2559 40.0373 71.3204 46.3231 75.1729C47.0912 75.6417 47.8481 76.1052 48.5883 76.559C50.0854 77.471 51.5075 78.3415 52.7508 79.1086C55.4532 80.7621 57.3293 81.9106 57.3293 81.9106Z" fill="#AB68C2"/>
<path d="M91.5945 26.2697C91.9499 26.8169 91.772 27.537 91.1977 27.8757C90.621 28.2145 89.8668 28.0454 89.5109 27.4973C89.1558 26.9486 89.3334 26.23 89.9086 25.8907C90.4843 25.5524 91.2385 25.7216 91.5945 26.2697Z" fill="white"/>
<path d="M37.9342 16.9847C37.1645 18.3285 35.397 18.8256 33.9861 18.0931C32.5753 17.3606 32.0537 15.6763 32.8219 14.3305C33.5916 12.9866 35.3591 12.4896 36.7699 13.222C38.1828 13.9555 38.7019 15.6397 37.9342 16.9847Z" fill="white"/>
<path d="M93.7025 30.3599C93.924 30.7029 93.8122 31.1522 93.4543 31.3645C93.0934 31.5761 92.6219 31.4696 92.3991 31.1286C92.1771 30.7847 92.2889 30.3353 92.6467 30.123C93.0076 29.9115 93.4795 30.0165 93.7025 30.3599Z" fill="white"/>
<path d="M29.8787 23.3059C29.3984 24.1461 28.2937 24.4571 27.4111 23.9989C26.5284 23.5406 26.2026 22.487 26.6829 21.6469C27.1648 20.8063 28.2689 20.4963 29.1521 20.9535C30.0342 21.4127 30.3596 22.4648 29.8787 23.3059Z" fill="white"/>
<path d="M76.9713 81.5344C76.5118 81.9158 76.069 82.3121 75.642 82.7244C74.1013 84.1926 72.7551 85.8354 71.6304 87.6179C71.258 88.2049 70.9114 88.8122 70.5984 89.4259C69.7118 91.1145 69.0309 92.897 68.5501 94.7305C68.3444 95.5296 68.1823 96.3382 68.057 97.1575C68.057 97.1671 68.057 97.1725 68.0526 97.1831C67.7932 98.8782 67.7004 100.603 67.7976 102.313C67.8848 103.941 68.1442 105.558 68.5602 107.13C69.1058 109.2 70.0416 111.06 70.8902 113.012C71.3274 114.011 71.4951 115.056 71.3329 116.041C71.1708 117.06 70.6576 118.018 69.7386 118.791C68.7122 119.652 67.3437 120.089 65.9875 119.986C65.7818 119.971 65.5761 119.94 65.3759 119.899C64.155 119.641 63.0951 118.936 62.1816 118.127C61.0736 117.159 60.0517 116.082 59.0947 114.974L59.0522 114.933C59.003 114.882 58.9661 114.825 58.9169 114.773C57.5383 113.161 56.3006 111.431 55.2038 109.628C54.9757 109.252 54.7544 108.871 54.5442 108.479C54.5442 108.479 54.5386 108.474 54.533 108.469C53.4306 106.465 52.5328 104.368 51.8463 102.21C51.7434 101.896 51.6517 101.577 51.5656 101.257C51.5545 101.247 51.5433 101.226 51.5489 101.206C51.3118 100.371 51.1061 99.527 50.9328 98.6715C50.6466 97.2598 50.4521 95.8332 50.3492 94.4013C50.328 94.1083 50.3112 93.8196 50.3011 93.5202C50.2899 93.5202 50.2955 93.5106 50.3011 93.5053C50.1871 91.1721 50.3112 88.8282 50.6891 86.5205C50.7059 86.4225 50.8568 85.7427 51.0949 84.8052C51.5053 83.1208 52.1705 80.5968 52.7486 79.1137C52.7821 79.0264 52.8145 78.9486 52.8469 78.8708C53.046 78.3871 53.2573 77.9077 53.4786 77.4336L66.6628 79.737L74.3394 81.0762L76.9713 81.5344Z" fill="#AB68C2"/>
<path d="M98.1655 110.31C97.7171 111.542 96.7545 112.567 95.5168 113.112C95.3278 113.196 95.1378 113.267 94.9432 113.323C93.7435 113.669 92.4578 113.55 91.2469 113.278C89.7811 112.947 88.3332 112.489 86.9267 111.98L86.8731 111.959C86.8026 111.933 86.7434 111.907 86.6729 111.882C84.6358 111.124 82.6736 110.197 80.7863 109.142C80.3916 108.92 80.0026 108.693 79.6135 108.451C79.6135 108.451 79.6079 108.446 79.5978 108.446C77.6088 107.214 75.7439 105.808 74.0299 104.252C73.7806 104.027 73.5379 103.794 73.2998 103.558C73.2841 103.553 73.2618 103.537 73.2562 103.522C71.559 101.884 70.035 100.08 68.7057 98.1541C68.5324 97.9122 68.3647 97.6704 68.2081 97.4126C68.1969 97.4179 68.1914 97.4072 68.1969 97.3966C68.1489 97.3252 68.1053 97.2527 68.0572 97.1803C66.8128 95.2647 65.7652 93.2404 64.9322 91.1288C64.8293 90.8709 64.7321 90.6184 64.6348 90.3499C64.5375 90.0932 64.4459 89.83 64.3542 89.5679C63.6677 87.5788 63.1701 85.5343 62.8672 83.4642C62.7911 82.9485 62.7263 82.4286 62.6726 81.913C62.6726 81.913 64.267 81.0372 66.6674 79.7342C72.6457 76.4794 83.6251 70.5344 87.327 68.7423C88.198 68.3151 88.6675 68.1244 88.5759 68.248C88.5759 68.2523 88.5658 68.2576 88.549 68.2736C87.2029 70.1434 86.0736 72.2241 85.2463 74.4807C84.3272 76.9886 83.814 79.6255 83.738 82.2784C83.6676 84.6745 83.9549 87.0642 84.5754 89.3815C84.619 89.5626 84.6682 89.7373 84.7219 89.9174C85.452 92.37 86.5432 94.7181 87.9811 96.8713C88.0358 96.9491 88.0839 97.0258 88.1432 97.1036C89.0141 98.3906 90.0137 99.602 91.1273 100.714C92.668 102.259 94.4468 103.44 96.1921 104.743C98.0145 106.097 98.9604 108.142 98.1655 110.31Z" fill="#AB68C2"/>
<path d="M24.7137 84.4867C25.2994 84.9504 25.1454 86.0473 24.3688 86.9382C23.5936 87.8273 22.4894 88.1735 21.9038 87.7099C21.3172 87.2456 21.4712 86.1486 22.248 85.2593C23.0237 84.3678 24.1272 84.0224 24.7137 84.4867Z" fill="#AB68C2"/>
<path d="M20.1485 88.3742C20.5923 88.6132 20.749 89.1504 20.4972 89.5728C20.2469 89.9949 19.6833 90.1441 19.2404 89.9056C18.797 89.6657 18.6398 89.1295 18.8907 88.7065C19.1424 88.2841 19.704 88.1361 20.1485 88.3742Z" fill="#AB68C2"/>
<path d="M63.9345 68.9638C63.9759 68.9712 64.0195 68.9957 64.062 69.0426C64.2554 69.2525 64.3281 69.7532 64.3381 70.0111C64.365 70.6663 64.2163 71.3492 63.8439 71.9128C63.4493 72.5116 62.8198 72.9122 62.1277 73.1455C62.0316 73.1775 61.9354 73.2062 61.837 73.2329C59.7406 73.8007 57.5257 72.697 56.913 70.7973C56.7979 70.4426 56.7095 69.8981 56.7822 69.5189C56.8225 69.31 56.9622 68.8849 57.2585 69.1001C57.4273 69.2237 57.6543 69.8939 58.0892 70.3286C59.1268 71.3641 60.4305 71.6667 61.7084 71.2725C62.8634 70.9167 63.3744 69.9642 63.6919 69.1215C63.7344 69.0075 63.8417 68.9467 63.9345 68.9638Z" fill="#222220"/>
<path d="M54.5509 57.0528C52.8917 67.2861 42.8419 74.3005 32.1017 72.7193C21.3626 71.1383 14.0015 61.5617 15.6609 51.3274C17.3189 41.0939 27.3699 34.0796 38.1101 35.6608C48.8491 37.2418 56.21 46.8194 54.5509 57.0528Z" fill="white"/>
<path d="M15.6589 51.327C17.3181 41.0936 27.3694 34.0795 38.1092 35.6606C48.849 37.2417 56.2103 46.8193 54.5511 57.0528C52.892 67.2862 42.8406 74.3003 32.1008 72.7192C21.361 71.1381 13.9997 61.5605 15.6589 51.327Z" stroke="#222220" stroke-width="2" stroke-miterlimit="10" stroke-linecap="round" stroke-linejoin="round"/>
<path d="M54.7721 53.7288C52.7282 61.86 44.4456 67.2691 35.6207 65.9703C26.3262 64.6024 19.9555 56.3124 21.3911 47.4567C22.1503 42.771 24.9432 38.8673 28.7793 36.4297C22.0653 38.6085 16.8171 44.1784 15.6588 51.3209C13.9996 61.5542 21.3609 71.1323 32.0999 72.7133C42.8401 74.2933 52.8915 67.2797 54.5496 57.0454C54.7307 55.9288 54.7989 54.8208 54.7721 53.7288Z" fill="#EBE7F3"/>
<path d="M34.1763 59.113C31.5457 58.4282 29.9948 55.8419 30.7124 53.3349C31.4307 50.8293 34.144 49.3501 36.7749 50.0338C39.4055 50.7186 40.9564 53.3049 40.2399 55.8122C39.5213 58.3189 36.8072 59.7967 34.1763 59.113Z" fill="#38295F"/>
<path d="M36.1537 56.4198C34.8377 56.0778 34.063 54.7842 34.4217 53.5313C34.7806 52.2773 36.1384 51.538 37.453 51.8808C38.7693 52.2218 39.544 53.5154 39.185 54.7694C38.8264 56.0223 37.4697 56.7619 36.1537 56.4198Z" fill="white"/>
<path d="M70.7438 41.142C63.1833 48.581 63.3828 60.4509 71.1894 67.6553C78.996 74.8583 91.4518 74.669 99.0115 67.2293C106.571 59.7911 106.373 47.9219 98.5668 40.7182C90.7601 33.5137 78.3036 33.7038 70.7438 41.142Z" fill="white"/>
<path d="M99.0123 67.2296C91.4521 74.6682 78.995 74.8583 71.1886 67.6541C63.3823 60.4499 63.1828 48.5795 70.7431 41.1408C78.3033 33.7021 90.7604 33.512 98.5668 40.7162C106.373 47.9204 106.573 59.7909 99.0123 67.2296Z" stroke="#222220" stroke-width="2" stroke-miterlimit="10" stroke-linecap="round" stroke-linejoin="round"/>
<path d="M73.3815 38.9785C67.8136 45.4392 68.2876 54.998 74.7031 60.9174C81.4585 67.1522 92.2388 66.9871 98.7818 60.5499C102.242 57.1448 103.823 52.6658 103.546 48.2795C105.777 54.6955 104.286 62.0457 99.0087 67.2375C91.4495 74.6762 78.9931 74.8658 71.1868 67.6626C63.3804 60.4583 63.1803 48.5885 70.7407 41.1498C71.5658 40.338 72.4524 39.6178 73.3815 38.9785Z" fill="#EBE7F3"/>
<path d="M85.9656 58.7285C88.5962 58.0438 90.1471 55.4575 89.4296 52.9505C88.712 50.4435 85.9979 48.9657 83.367 49.6494C80.7364 50.3342 79.1855 52.9205 79.902 55.4277C80.6206 57.9344 83.3348 59.4123 85.9656 58.7285Z" fill="#38295F"/>
<path d="M83.9892 56.0198C85.3052 55.6778 86.08 54.3843 85.7214 53.1313C85.3625 51.8773 84.0048 51.1379 82.6899 51.4796C81.3739 51.8216 80.5991 53.1151 80.958 54.3691C81.3166 55.6221 82.6732 56.3617 83.9892 56.0198Z" fill="white"/>
<path d="M15.3489 54.2251C15.3489 43.8736 24.1548 35.4824 35.0179 35.4824C45.881 35.4824 54.6869 43.8736 54.6869 54.2251" fill="#AB68C2"/>
<path d="M65.1723 54.2251C65.1723 43.8736 73.9782 35.4824 84.8413 35.4824C95.7044 35.4824 104.51 43.8736 104.51 54.2251" fill="#AB68C2"/>
</svg>
